# xmcd
#
# Track frame offsets:
#	150
#	9437
#	20860
#	32089
#	43696
#	57963
#	68537
#	78631
#	90602
#	104184
#	114937
#	125225
#	134156
#	144049
#	153456
#	165343
#	177841
#	188770
#	201670
#	215630
#
# Disc length: 3026 seconds
#
# Revision: 1
# Processed by: cddbd v1.5.2PL0 Copyright (c) Steve Scherf et al.
# Submitted via: audiograbber 1.83.01
#
DISCID=240bd014
DTITLE=Various Artist - Have A Good Time, Vol. 3
DYEAR=2006
DGENRE=Soul
TTITLE0=Ollie Jackson - Just A Little While
TTITLE1=The Showstoppers - Heartbreaker
TTITLE2=Detroit Soul - All Of My Life
TTITLE3=The Nature Boys - Watch Yourself
TTITLE4=Chris Bartley - I See Your Name
TTITLE5=The Incredibles - I Can't Get Over Losing Your Love
TTITLE6=Little Bernie and Tha Cavaliers - Poor Town
TTITLE7=La Shell and The Shellettes - You Better Check Yourself
TTITLE8=Luther Thomas - Upset The Town
TTITLE9=Tommy Bush - I Don't Like It (But I Love You)
TTITLE10=Johnny Taylor - Love On A Lease Plan
TTITLE11=The Charmettes - Sugar Boy
TTITLE12=Billy Harner - Sally Sayin' Something
TTITLE13=The Soul Set - Please Don't Make Me Cry
TTITLE14=Lee Sain - Baby Don't You Leave Me
TTITLE15=Sylvia Maddox - Vietnam Blues
TTITLE16=Bobby Spencer - I Just Want To Satisfy
TTITLE17=The Tempos - Don't Leave Me
TTITLE18=Jackie Owens - You're Doing Something Awfully Good
TTITLE19=Linda Queen - I Feel The Pain
EXTD=
EXTT0=
EXTT1=
EXTT2=
EXTT3=
EXTT4=
EXTT5=
EXTT6=
EXTT7=
EXTT8=
EXTT9=
EXTT10=
EXTT11=
EXTT12=
EXTT13=
EXTT14=
EXTT15=
EXTT16=
EXTT17=
EXTT18=
EXTT19=
PLAYORDER=
